<?xml version="1.0" encoding="UTF-8" standalone="no"?>
<!DOCTYPE svg PUBLIC "-//W3C//DTD SVG 1.1//EN" "http://www.w3.org/Graphics/SVG/1.1/DTD/svg11.dtd">
<svg xmlns="http://www.w3.org/2000/svg" version="1.1" viewBox="0 0 579 160" width="579.0pt" height="160.0pt">
<path d="M 0.00 0.00 L 579.00 0.00 L 579.00 160.00 L 0.00 160.00 L 0.00 0.00 Z" fill="#ffffff" />
<path d="M 96.97 2.73 C 127.20 -0.02 158.77 11.05 178.49 34.62 C 186.13 44.22 192.19 56.11 193.72 68.37 C 190.48 68.39 187.24 68.39 183.99 68.35 C 180.98 49.25 167.71 33.13 151.60 23.15 C 137.79 14.58 122.10 11.01 106.00 10.38 C 101.59 10.27 97.37 11.13 93.02 11.61 C 75.28 13.92 58.37 22.01 45.60 34.56 C 36.72 43.77 30.01 55.10 27.84 67.83 C 24.59 67.91 21.35 67.93 18.10 67.87 C 20.82 47.15 35.21 28.58 52.54 17.55 C 65.77 9.04 81.28 3.87 96.97 2.73 Z" fill="#c3141b" />
<path d="M 91.06 24.71 C 94.07 23.22 96.75 24.38 99.58 25.62 C 99.73 60.51 99.58 95.40 99.70 130.29 C 98.87 131.12 98.05 131.95 97.23 132.79 C 95.16 132.75 93.09 132.68 91.02 132.58 C 90.23 131.47 89.44 130.37 88.64 129.28 C 88.70 95.38 88.66 61.47 88.66 27.57 C 89.39 26.56 90.15 25.58 91.06 24.71 Z" fill="#c3141b" />
<path d="M 114.84 23.99 C 117.91 24.36 120.59 23.40 122.41 26.53 C 123.21 30.89 122.64 35.57 122.78 40.00 C 122.90 59.99 122.45 80.03 123.21 100.00 C 123.31 110.09 123.20 120.10 122.65 130.18 C 121.87 131.00 121.09 131.83 120.31 132.66 C 118.49 132.68 116.67 132.70 114.85 132.70 C 114.02 132.13 113.19 131.56 112.36 130.99 C 112.02 125.32 112.13 119.67 112.14 114.00 C 112.23 88.33 112.27 62.67 112.21 37.00 C 112.21 33.39 112.09 29.63 112.47 26.05 C 113.25 25.36 114.04 24.67 114.84 23.99 Z" fill="#c3141b" />
<path d="M 518.59 37.24 L 518.53 36.58 C 520.51 36.60 522.49 36.61 524.47 36.61 L 524.36 37.48 C 525.62 37.52 526.88 37.58 528.14 37.63 C 530.60 39.07 533.35 40.46 535.39 42.48 C 537.48 44.54 539.00 47.40 540.51 49.90 C 540.47 50.71 540.42 51.52 540.38 52.33 C 537.56 52.30 534.73 52.29 531.91 52.31 C 531.33 51.92 530.75 51.54 530.17 51.14 C 528.13 47.55 525.34 45.25 520.99 45.49 C 516.33 45.35 514.16 48.52 511.56 51.81 C 511.41 54.97 511.39 58.10 511.56 61.27 C 512.98 63.00 514.42 64.72 515.88 66.42 C 520.26 68.12 522.32 68.20 526.67 66.39 C 527.54 65.47 528.42 64.55 529.31 63.64 C 529.74 62.89 530.17 62.15 530.60 61.40 C 534.05 61.38 537.49 61.35 540.94 61.46 C 538.85 67.02 536.48 70.24 531.85 73.90 C 529.90 74.67 527.96 75.46 526.04 76.29 C 522.98 76.41 519.92 76.41 516.86 76.34 C 514.58 75.35 512.02 74.45 509.99 73.03 C 507.42 71.21 505.55 68.63 503.64 66.17 C 502.51 63.19 501.62 60.17 501.21 57.00 C 501.51 53.48 502.36 50.21 503.62 46.91 C 507.42 41.71 511.77 37.56 518.59 37.24 Z" fill="#000000" />
<path d="M 248.99 37.77 C 251.78 37.41 254.67 37.61 257.48 37.58 C 257.88 38.77 258.30 39.96 258.71 41.15 C 260.32 45.02 261.69 48.97 263.26 52.85 C 264.39 55.95 265.57 59.03 266.80 62.09 C 268.70 66.68 270.67 71.42 271.90 76.22 C 268.50 76.24 265.09 76.23 261.68 76.26 C 260.92 74.31 260.16 72.36 259.37 70.42 C 254.93 70.45 250.49 70.41 246.05 70.50 C 245.50 72.44 244.86 74.36 244.23 76.27 C 240.65 76.33 237.26 76.13 233.73 75.63 C 237.91 65.41 242.09 55.23 246.03 44.94 C 246.95 42.55 247.76 40.02 248.99 37.77 Z" fill="#000000" />
<path d="M 404.78 37.75 C 409.06 37.36 413.43 37.67 417.73 37.61 C 417.73 50.33 417.74 63.05 417.72 75.77 C 414.67 75.77 411.61 75.74 408.56 75.66 C 408.53 66.82 408.90 57.95 408.37 49.12 C 407.38 53.26 406.18 57.36 405.22 61.51 L 404.78 61.49 C 403.79 66.29 402.30 70.92 401.15 75.67 C 398.94 75.72 396.72 75.75 394.51 75.76 L 394.32 74.96 C 393.85 73.62 393.42 72.27 393.00 70.91 C 392.03 67.30 390.97 63.72 389.97 60.12 C 389.28 57.73 388.65 55.34 387.82 52.99 C 387.52 51.20 387.24 49.40 386.93 47.62 C 385.87 56.91 386.73 66.41 386.51 75.75 C 383.55 75.75 380.58 75.74 377.62 75.70 C 377.62 63.01 377.61 50.32 377.62 37.62 C 381.90 37.57 386.17 37.60 390.45 37.57 C 393.18 45.71 395.26 54.07 398.04 62.20 C 399.06 57.39 400.50 52.63 401.81 47.89 C 402.85 44.54 403.52 41.02 404.78 37.75 Z" fill="#000000" />
<path d="M 436.88 37.78 C 439.68 37.41 442.58 37.61 445.39 37.60 C 445.50 38.19 445.60 38.78 445.71 39.37 C 446.94 42.18 448.03 45.05 449.28 47.86 C 452.57 56.58 455.73 65.37 459.27 73.99 C 459.32 74.75 459.37 75.51 459.42 76.27 C 455.82 76.35 452.37 76.19 448.81 75.53 C 448.38 73.83 447.91 72.15 447.42 70.47 C 442.85 70.42 438.28 70.41 433.72 70.50 C 433.31 72.21 432.87 73.91 432.43 75.61 C 429.01 76.23 425.61 76.33 422.15 76.26 C 422.39 74.87 422.63 73.48 422.93 72.11 C 424.40 69.14 425.56 66.06 426.79 63.00 C 429.16 56.99 431.39 50.92 433.72 44.90 C 434.78 42.54 435.62 40.04 436.88 37.78 Z" fill="#000000" />
<path d="M 482.49 37.63 C 482.49 40.31 482.49 42.98 482.53 45.66 C 479.89 45.96 477.26 46.24 474.62 46.45 C 474.66 56.20 474.63 65.95 474.63 75.69 C 471.51 75.94 468.37 75.93 465.25 75.78 C 464.94 65.88 465.88 55.78 464.65 45.96 C 462.30 46.18 459.97 46.06 457.62 45.85 C 457.62 43.11 457.63 40.37 457.64 37.63 C 465.92 37.56 474.21 37.56 482.49 37.63 Z" fill="#000000" />
<path d="M 273.52 37.62 C 276.83 37.58 280.14 37.58 283.45 37.60 C 283.55 45.07 283.37 52.54 283.47 60.01 C 283.48 62.25 284.03 64.37 284.52 66.54 C 286.34 67.20 288.11 67.64 290.03 67.93 C 290.76 67.31 291.50 66.69 292.24 66.07 C 292.61 65.04 292.97 64.01 293.35 62.98 C 293.41 54.52 293.35 46.05 293.39 37.59 C 296.47 37.59 299.56 37.59 302.65 37.59 C 302.55 46.73 302.88 55.90 302.48 65.03 C 302.26 70.64 297.66 74.05 293.07 76.35 C 290.02 76.39 286.97 76.39 283.91 76.34 C 279.33 74.33 277.13 72.75 274.54 68.41 C 274.51 67.45 274.48 66.49 274.45 65.54 L 273.52 65.52 C 273.52 56.22 273.49 46.92 273.52 37.62 Z" fill="#000000" />
<path d="M 306.59 37.63 C 314.86 37.55 323.13 37.61 331.41 37.59 C 331.41 40.47 331.40 43.35 331.36 46.23 C 329.02 46.21 326.67 46.21 324.33 46.19 C 324.29 56.02 324.31 65.85 324.32 75.67 C 321.03 75.75 317.75 75.75 314.47 75.76 C 314.43 65.98 314.44 56.21 314.47 46.43 C 311.82 46.23 309.18 45.95 306.54 45.65 C 306.57 42.98 306.58 40.30 306.59 37.63 Z" fill="#000000" />
<path d="M 345.85 37.81 C 350.16 36.87 354.79 37.31 359.14 37.64 C 363.03 39.65 366.07 41.80 369.01 45.06 C 370.03 47.12 371.05 49.15 371.78 51.33 C 372.91 54.20 372.43 57.84 372.36 60.87 C 371.90 61.94 371.48 63.02 371.08 64.12 C 369.33 67.85 366.67 70.66 363.62 73.36 C 361.45 74.38 359.25 75.32 357.06 76.30 C 352.21 76.48 347.71 76.85 343.25 74.53 C 337.73 72.01 335.06 67.34 332.60 62.08 C 332.49 58.71 332.21 55.15 332.75 51.81 C 334.42 45.31 339.41 39.83 345.85 37.81 Z" fill="#000000" />
<path d="M 486.39 37.58 C 489.64 37.60 492.97 37.45 496.20 37.79 C 496.52 50.38 496.19 63.03 496.35 75.64 C 493.03 75.79 489.71 75.78 486.39 75.73 C 486.37 63.01 486.37 50.30 486.39 37.58 Z" fill="#000000" />
<path d="M 352.25 45.37 C 355.95 45.57 358.81 46.92 360.82 50.12 C 363.20 53.60 362.68 57.11 362.33 61.06 C 360.66 63.31 359.36 65.50 356.76 66.80 C 353.65 68.52 350.05 67.63 346.90 66.50 C 345.53 64.99 344.14 63.49 342.73 62.00 C 342.15 58.56 342.20 55.15 342.46 51.67 C 345.22 48.33 347.51 45.43 352.25 45.37 Z" fill="#ffffff" />
<path d="M 50.08 47.63 C 52.79 47.39 55.68 49.67 57.49 51.50 C 65.50 59.67 73.62 67.73 81.46 76.07 C 81.55 77.47 81.64 78.88 81.72 80.28 C 73.52 88.93 65.15 97.44 56.80 105.95 C 53.68 109.51 47.60 110.11 44.81 105.86 C 44.41 104.22 44.43 102.45 44.30 100.77 C 49.42 95.35 55.22 90.43 59.80 84.54 C 44.86 84.21 29.90 84.49 14.96 84.41 C 12.19 84.52 9.49 83.29 7.80 81.08 C 7.21 79.42 7.43 77.35 7.30 75.59 C 9.82 74.05 11.80 72.29 14.95 72.46 C 29.89 72.37 44.85 72.67 59.79 72.34 C 55.28 66.49 49.51 61.66 44.47 56.26 C 44.45 54.37 44.45 52.49 44.45 50.60 C 46.21 49.52 48.09 48.21 50.08 47.63 Z" fill="#c3141b" />
<path d="M 162.07 47.42 C 164.27 48.82 167.60 49.95 167.55 53.09 C 167.84 55.95 166.06 57.34 164.32 59.27 C 160.00 63.60 155.69 67.95 151.46 72.37 C 167.47 72.52 183.49 72.48 199.50 72.49 C 201.17 73.66 202.81 74.85 204.43 76.09 C 204.45 77.61 204.47 79.13 204.50 80.65 C 202.22 82.64 200.33 84.59 197.03 84.39 C 181.90 84.47 166.75 84.22 151.62 84.56 C 156.78 90.08 162.23 95.30 167.35 100.85 C 167.41 102.42 167.48 103.99 167.54 105.56 C 164.36 109.15 159.32 110.22 155.69 106.61 C 148.58 99.63 141.61 92.48 134.54 85.45 C 133.18 84.06 131.72 82.64 130.64 81.03 C 130.08 79.43 130.27 77.55 130.18 75.87 C 138.30 67.76 146.38 59.62 154.42 51.44 C 156.67 49.01 158.80 47.92 162.07 47.42 Z" fill="#c3141b" />
<path d="M 440.73 50.05 L 440.91 49.63 C 441.95 53.96 443.36 58.14 444.64 62.43 C 442.17 62.47 439.70 62.48 437.23 62.49 C 437.34 60.83 437.46 59.17 437.57 57.51 L 438.20 57.58 C 438.80 54.96 439.65 52.50 440.73 50.05 Z" fill="#ffffff" />
<path d="M 253.02 49.98 C 253.95 52.99 254.90 55.99 255.90 58.97 C 256.25 60.13 256.60 61.27 256.98 62.42 C 254.29 62.46 251.62 62.47 248.94 62.45 C 249.51 59.91 250.09 57.31 250.91 54.84 C 251.58 53.20 252.28 51.58 253.02 49.98 Z" fill="#ffffff" />
<path d="M 379.78 87.95 C 384.17 87.43 388.38 87.99 392.73 88.44 C 395.13 88.48 397.52 88.59 399.92 88.70 C 402.86 90.37 405.58 91.65 407.02 94.94 C 408.97 98.25 408.35 101.44 408.42 105.11 C 406.68 108.42 404.81 110.84 401.61 112.90 C 404.50 117.17 406.99 121.73 409.14 126.42 C 406.11 126.39 402.97 126.66 399.97 126.20 C 399.30 125.53 398.65 124.83 398.03 124.10 C 396.87 121.63 395.57 119.25 394.18 116.90 C 393.00 114.68 391.83 112.46 390.70 110.22 C 388.19 114.85 389.80 121.23 389.33 126.41 C 386.07 126.45 382.80 126.45 379.54 126.44 C 379.42 115.96 379.54 105.48 379.48 95.00 C 379.49 92.67 379.40 90.25 379.78 87.95 Z" fill="#000000" />
<path d="M 431.80 87.89 C 432.75 88.18 433.70 88.47 434.65 88.74 C 434.60 91.53 434.58 94.32 434.49 97.10 C 430.80 96.71 427.12 96.76 423.42 96.75 C 423.38 98.69 423.35 100.63 423.33 102.57 C 427.04 102.56 430.74 102.56 434.45 102.58 C 434.50 105.56 434.50 108.53 434.47 111.50 C 430.77 111.51 427.08 111.52 423.39 111.51 C 423.37 113.56 423.35 115.61 423.34 117.66 C 427.07 117.66 430.79 117.66 434.52 117.64 C 434.58 120.58 434.59 123.52 434.56 126.45 C 427.94 126.43 421.30 126.41 414.68 126.49 C 414.06 125.97 413.44 125.46 412.82 124.94 C 412.79 115.29 412.82 105.64 412.79 95.99 C 412.87 93.50 413.25 91.02 413.58 88.56 C 419.68 87.42 425.64 87.81 431.80 87.89 Z" fill="#000000" />
<path d="M 256.01 87.97 L 257.00 87.63 C 259.83 87.34 262.65 87.43 265.49 87.48 L 265.54 88.12 C 271.42 89.09 276.04 93.02 278.89 98.12 C 281.13 101.79 281.02 106.87 280.67 111.01 C 280.04 117.27 275.80 121.59 270.83 124.94 C 268.60 125.74 266.35 126.50 264.11 127.28 C 262.04 127.28 259.97 127.28 257.89 127.26 C 256.60 126.81 255.30 126.38 254.00 125.94 C 253.03 125.60 252.06 125.25 251.10 124.90 C 246.33 121.94 242.73 117.71 241.55 112.13 C 241.21 109.08 241.22 105.91 241.57 102.87 C 243.15 95.43 248.75 89.98 256.01 87.97 Z" fill="#000000" />
<path d="M 300.94 87.51 C 303.78 87.44 306.63 87.45 309.47 87.50 L 309.54 88.10 C 315.54 89.38 320.46 93.40 323.10 98.90 C 325.04 102.43 324.72 107.12 324.51 111.03 C 323.89 116.94 320.24 121.02 315.58 124.33 C 313.10 125.38 310.58 126.33 308.08 127.32 C 303.62 127.59 300.00 126.84 295.84 125.38 C 290.65 122.26 286.15 118.42 285.40 112.03 C 285.05 106.45 284.60 100.76 288.15 96.06 C 291.28 91.45 295.85 89.29 300.94 87.51 Z" fill="#000000" />
<path d="M 448.94 87.48 C 452.03 87.46 454.86 87.08 457.73 88.53 C 462.50 90.69 465.03 94.19 464.94 99.52 C 461.96 99.56 458.98 99.56 456.00 99.52 C 454.82 97.91 453.51 96.46 452.10 95.05 C 450.07 96.63 448.46 97.16 448.18 100.01 C 450.24 100.99 452.28 101.99 454.36 102.90 L 454.57 103.18 C 458.14 104.60 461.20 106.64 464.16 109.05 C 465.70 114.22 465.77 117.60 463.47 122.54 C 462.37 123.47 461.27 124.39 460.17 125.32 C 458.45 125.96 456.74 126.62 455.04 127.30 C 450.75 127.43 446.81 127.28 443.09 124.89 C 441.05 123.49 439.93 121.23 438.59 119.21 C 438.57 117.34 438.54 115.47 438.53 113.61 C 441.47 113.61 444.41 113.61 447.36 113.58 C 447.91 115.08 448.41 116.65 449.14 118.06 C 450.79 119.22 453.28 118.82 455.04 118.11 C 455.27 116.71 455.46 115.29 455.58 113.87 C 452.97 112.48 450.30 111.23 447.53 110.18 L 447.29 109.97 C 445.57 109.07 443.63 108.19 442.20 106.86 C 440.62 105.29 439.57 102.98 438.46 101.05 C 438.75 95.72 440.70 91.12 445.82 88.88 C 446.86 88.41 447.90 87.94 448.94 87.48 Z" fill="#000000" />
<path d="M 480.73 88.70 C 481.47 88.50 482.22 88.28 482.96 88.06 L 484.08 87.73 C 488.20 87.09 492.23 87.21 496.06 89.01 C 502.04 91.45 505.83 96.48 507.95 102.45 C 504.37 102.63 500.82 102.64 497.24 102.49 C 496.22 100.89 495.16 98.75 493.50 97.74 C 490.98 96.10 487.62 96.19 484.78 96.79 C 481.92 97.81 480.30 100.57 478.56 102.88 C 478.49 105.59 478.26 108.51 478.67 111.19 C 479.52 113.63 481.22 115.46 482.81 117.42 C 486.06 118.68 488.69 118.77 492.11 118.40 C 494.27 116.65 495.92 114.89 497.27 112.43 C 500.81 112.19 504.36 112.22 507.90 112.37 C 506.71 115.17 505.61 118.22 503.53 120.50 C 501.73 122.50 499.40 123.86 497.19 125.36 C 493.10 126.81 489.45 127.63 485.05 127.28 C 483.04 126.49 481.02 125.72 478.96 125.06 C 475.59 122.91 473.00 120.37 470.53 117.25 C 467.91 110.68 467.78 105.73 469.82 98.96 C 472.74 94.32 475.78 91.18 480.73 88.70 Z" fill="#000000" />
<path d="M 18.09 88.54 C 21.35 88.51 24.60 88.52 27.86 88.58 C 29.53 100.13 35.55 111.16 43.27 119.79 C 53.42 131.04 66.68 138.67 81.19 142.83 C 92.54 145.51 105.35 147.75 116.92 145.56 C 135.18 143.32 153.23 135.42 166.13 122.12 C 175.25 113.17 181.90 101.23 184.00 88.59 C 187.26 88.56 190.52 88.56 193.77 88.59 C 190.86 107.91 179.39 124.36 163.96 135.93 C 150.66 145.74 134.43 152.06 117.97 153.67 C 104.13 155.91 89.47 154.06 76.07 150.18 C 73.08 149.15 70.10 148.09 67.16 146.92 C 56.87 142.44 47.35 136.63 39.39 128.64 C 28.42 118.29 19.78 103.68 18.09 88.54 Z" fill="#c3141b" />
<path d="M 204.46 88.44 C 210.67 88.52 216.93 88.20 223.12 88.63 C 227.96 89.29 231.46 92.10 234.41 95.81 C 235.50 98.45 236.56 101.04 237.22 103.82 C 238.09 109.00 236.95 114.64 234.30 119.15 C 232.54 122.16 229.82 123.42 226.99 125.18 C 219.50 126.98 212.11 126.36 204.51 126.42 C 204.41 113.76 204.49 101.10 204.46 88.44 Z" fill="#000000" />
<path d="M 329.77 88.50 C 336.56 88.35 343.34 88.40 350.13 88.62 C 352.97 90.17 355.62 91.44 357.28 94.40 C 358.64 96.44 358.71 98.65 358.92 101.00 C 358.73 103.03 358.53 105.06 358.27 107.09 C 356.68 109.05 354.99 110.84 353.00 112.42 C 354.00 117.47 357.88 121.76 360.00 126.45 C 356.64 126.46 353.29 126.45 349.93 126.34 C 347.41 121.15 344.19 116.39 341.88 111.09 C 341.10 111.68 340.31 112.27 339.53 112.86 C 339.76 117.39 339.76 121.90 339.47 126.42 C 336.43 126.42 333.40 126.45 330.37 126.55 C 329.99 124.04 329.70 121.54 329.74 119.00 C 329.80 108.83 329.76 98.67 329.77 88.50 Z" fill="#000000" />
<path d="M 512.58 88.47 C 515.88 88.42 519.18 88.42 522.47 88.48 C 522.52 97.64 522.27 106.82 522.65 115.97 C 523.43 116.79 524.21 117.62 524.99 118.46 C 526.52 118.54 528.05 118.60 529.58 118.66 C 530.57 117.23 531.49 115.76 532.40 114.27 C 532.26 105.65 532.37 97.03 532.33 88.41 C 535.49 88.42 538.64 88.43 541.80 88.45 C 541.77 96.63 541.86 104.82 541.77 113.01 C 541.79 115.52 541.17 117.87 540.50 120.27 C 538.82 122.10 537.08 123.83 535.23 125.48 C 530.94 127.02 526.94 128.19 522.44 126.56 C 517.18 125.08 512.98 120.62 512.70 115.04 C 512.41 106.20 512.67 97.32 512.58 88.47 Z" fill="#000000" />
<path d="M 548.56 88.45 C 555.84 88.43 563.13 88.36 570.41 88.51 C 570.40 91.23 570.40 93.94 570.43 96.66 C 566.47 96.79 562.51 96.78 558.55 96.79 C 558.52 98.71 558.49 100.63 558.47 102.55 C 562.18 102.57 565.88 102.58 569.59 102.56 C 569.64 105.55 569.64 108.54 569.59 111.53 C 565.90 111.51 562.21 111.51 558.52 111.52 C 558.50 113.56 558.49 115.60 558.47 117.65 C 562.14 117.66 565.80 117.67 569.46 117.61 L 569.42 118.65 L 570.46 118.39 C 570.43 120.78 570.43 123.17 570.46 125.56 L 569.45 125.46 L 569.54 126.49 C 562.56 126.37 555.57 126.48 548.59 126.43 C 548.50 113.77 548.56 101.11 548.56 88.45 Z" fill="#000000" />
<path d="M 301.64 96.73 C 303.77 96.26 306.04 96.30 308.18 96.75 C 311.01 97.68 312.40 99.88 314.26 102.01 C 314.84 105.68 314.88 109.25 314.23 112.91 C 312.90 114.45 311.56 115.97 310.27 117.54 C 307.15 118.78 304.17 118.71 300.90 118.37 C 298.98 116.77 297.22 115.10 295.59 113.21 C 295.43 112.47 295.26 111.74 295.08 111.00 C 294.37 108.41 294.37 106.54 294.97 103.93 C 295.19 103.20 295.40 102.47 295.60 101.73 C 297.32 99.77 298.97 97.41 301.64 96.73 Z" fill="#ffffff" />
<path d="M 214.32 96.68 C 217.92 96.63 221.02 97.00 224.30 98.53 C 225.29 100.04 226.29 101.55 227.31 103.03 C 227.61 105.72 227.67 108.32 227.54 111.03 C 227.07 112.09 226.61 113.16 226.17 114.24 C 224.94 115.35 223.66 116.63 222.20 117.42 C 219.59 117.76 216.88 117.65 214.25 117.66 C 214.28 110.67 214.20 103.68 214.32 96.68 Z" fill="#ffffff" />
<path d="M 264.17 96.71 C 267.05 97.50 268.52 99.60 270.41 101.71 C 270.59 102.45 270.78 103.19 270.97 103.93 C 271.55 106.27 271.47 108.58 271.29 110.96 C 269.58 114.13 267.99 116.23 265.03 118.33 C 261.52 118.80 259.08 118.69 255.73 117.51 C 253.05 114.86 251.56 112.59 250.43 108.98 C 250.80 105.20 251.15 101.76 254.03 98.99 C 256.84 96.26 260.50 96.09 264.17 96.71 Z" fill="#ffffff" />
<path d="M 339.58 97.13 C 343.04 96.63 346.35 96.38 348.82 99.26 C 350.45 101.72 349.03 104.89 348.12 107.36 C 345.27 107.70 342.46 107.75 339.59 107.69 C 339.58 104.17 339.58 100.65 339.58 97.13 Z" fill="#ffffff" />
<path d="M 389.46 96.56 C 391.67 96.83 393.87 97.09 396.05 97.57 C 396.89 97.97 397.73 98.38 398.56 98.80 C 398.67 100.96 398.73 103.12 398.75 105.28 C 397.92 106.07 397.10 106.86 396.27 107.65 C 393.96 107.71 391.65 107.70 389.35 107.71 C 389.35 103.99 389.35 100.27 389.46 96.56 Z" fill="#ffffff" />
</svg>